<svg xmlns="http://www.w3.org/2000/svg" width="808" height="466.781" viewBox="0 0 808 466.781">
  <defs>
    <style>
      .cls-1 {
        fill: #fff;
        fill-rule: evenodd;
      }
    </style>
  </defs>
  <path id="Forme_1" data-name="Forme 1" class="cls-1" d="M4,296.119c28.882-81.146,109.987-135.5,206.363-134.909C394.685,160.628,421.018,325.466,610,325.466c66.647,0.624,130.408-24.359,177.565-78.382C763.015,404.643,626.44,483.135,430,466,264.8,450.953,192.43,357.5,89,312A208.182,208.182,0,0,0,4,296.119ZM812.01,158.585c-50.8,112.094-138.707,135.9-188.029,135.9-194.649,0-196.441-165.725-416.243-164C159.677,130.194,97.26,141.334,32.627,200.5,100.748-21.2,413.145-58.006,645,92,742.587,156.269,784.242,161.2,812.01,158.585Z" transform="translate(-4 -1.531)"/>
</svg>